# xmcd
#
# Track frame offsets:
#	150
#	15044
#	28990
#	39593
#	52238
#	64385
#	82124
#	95670
#	105533
#	116199
#	129483
#	139311
#	153061
#	164276
#	174480
#	187893
#	200538
#
# Disc length: 2868
#
# Revision: 1
# Processed by: cddbd v1.5.2PL0 Copyright (c) Steve Scherf et al.
# Submitted via: kJams Pro (development) 1.0patch49.13
#
DISCID=eb0b3211
DTITLE=Various Artist - Disc 4 Classic Country 
DYEAR=2007
DGENRE=Karaoke
TTITLE0=Claude King - Wolverton Mountain
TTITLE1=Patsy Cline - She's Got You
TTITLE2=Flatt and Scruggs - Salty Dog
TTITLE3=George Jones - She Thinks I Still Care
TTITLE4=Johnny Cash - Ring Of Fire
TTITLE5=Patsy Cline - Faded Love
TTITLE6=Ernie Ashworth - Talk Back Trembling Lips
TTITLE7=Buck Owens - Love's Gonna Live Here
TTITLE8=Dale and Grace - I'm Leaving It All Up To You
TTITLE9=Hawkshaw Hawkins - Lonesome 7−7203
TTITLE10=Patsy Cline - Anytime
TTITLE11=Bill Anderson - Still
TTITLE12=George Hamilton IV - Karaoke ⁄ Abilene
TTITLE13=Patsy Cline - Back In My Baby's Arms
TTITLE14=Bobby Bare - Detroit City
TTITLE15=Porter Wagoner - Misery Loves Company
TTITLE16=Carl Butler and Pearl - Don't Let Me Cross Over
EXTD=
EXTT0=
EXTT1=
EXTT2=
EXTT3=
EXTT4=
EXTT5=
EXTT6=
EXTT7=
EXTT8=
EXTT9=
EXTT10=
EXTT11=
EXTT12=
EXTT13=
EXTT14=
EXTT15=
EXTT16=
PLAYORDER=
